<?xml version="1.0" encoding="UTF-8"?>
<svg width="209px" height="211px" viewBox="0 0 209 211" version="1.1" xmlns="http://www.w3.org/2000/svg" xmlns:xlink="http://www.w3.org/1999/xlink">
    <title>编组</title>
    <g id="页面-1" stroke="none" stroke-width="1" fill="none" fill-rule="evenodd">
        <g id="编组">
            <circle id="椭圆形" stroke="#2B2B2B" stroke-width="8" cx="104.5" cy="104.5" r="100.5"></circle>
            <g id="logo" transform="translate(57.000000, 19.000000)" fill-rule="nonzero">
                <path d="M113.595,119.72 C113.193,118.915 112.389,118.513 111.586,118.113 C111.586,118.113 104.354,114.498 97.525,109.273 C95.515,107.668 93.507,106.06 91.9,104.052 C86.677,99.23 81.455,94.007 74.223,94.007 L62.573,94.007 C61.368,94.007 60.564,94.007 59.359,94.007 C44.093,92.4 32.442,79.544 32.442,63.876 C32.442,55.649 35.851,48.122 41.316,42.649 C41.347,42.618 41.379,42.588 41.41,42.559 C46.878,37.13 54.376,33.745 62.573,33.745 C65.386,33.745 67.394,31.335 67.394,28.925 C67.394,26.514 64.983,24.104 62.573,24.104 C47.526,24.104 34.35,32.492 27.47,44.819 C27.45,44.852 27.429,44.885 27.409,44.919 C24.221,50.671 22.397,57.271 22.397,64.278 C21.193,60.663 20.791,56.645 20.791,52.628 C20.791,50.663 20.925,48.743 21.159,46.864 C21.163,46.835 21.169,46.805 21.172,46.776 C23.905,25.241 41.537,9.641 62.572,9.641 C65.385,9.641 67.393,7.231 67.393,4.82 C67.393,2.41 64.982,0 62.572,0 C34.172,0 10.957,23.102 10.757,51.458 C10.757,51.485 10.755,51.515 10.755,51.542 C10.754,51.638 10.747,51.73 10.747,51.825 C10.747,67.513 17.777,81.6 28.776,91.141 L17.273,85.241 C16.469,84.841 15.667,84.841 14.863,84.841 C6.428,84.841 0,91.269 0,99.705 C0.401,107.74 4.419,118.185 21.694,120.596 C17.274,129.836 9.995,155.862 9.995,179.965 C9.995,181.004 10.337,181.922 10.875,182.682 C12.235,183.42 13.63,184.104 15.039,184.76 C24.598,189.205 35.246,191.703 46.482,191.703 C56.401,191.703 65.86,189.752 74.52,186.24 C75.337,185.908 76.147,185.558 76.951,185.199 C78.681,183.72 79.421,181.094 78.392,179.039 C69.956,162.568 74.223,149.449 76.232,145.029 C77.839,144.627 79.847,144.226 81.455,144.226 C88.685,143.021 95.918,141.413 103.551,141.413 C107.569,141.413 110.782,140.208 113.193,137.395 C115.202,134.985 116.006,132.172 116.006,128.957 C116.006,123.738 113.595,120.121 113.595,119.72 Z" id="路径" fill="#2B2B2B"></path>
                <path d="M69.158,183.458 C61.123,167.79 62.177,154.269 64.587,146.233 C63.783,146.233 62.578,146.233 61.774,146.233 C54.543,146.233 50.525,143.02 48.516,140.608 C43.294,134.583 44.901,125.342 45.303,124.54 C46.106,121.727 48.516,120.12 51.328,120.522 C54.141,121.325 55.748,123.737 55.346,126.547 C54.945,128.154 54.542,132.172 56.551,134.582 C56.952,134.984 58.158,136.592 62.176,136.592 C67.399,136.592 73.425,135.385 79.45,134.18 C86.681,132.975 94.717,131.367 103.554,131.367 C104.357,131.367 105.161,130.967 105.161,130.967 C105.562,130.565 105.964,130.164 105.964,128.957 C105.964,127.752 105.964,126.949 105.563,126.146 C102.75,124.539 97.126,121.324 91.501,116.906 C89.091,115.299 87.082,113.289 85.073,111.281 C80.654,106.861 77.44,104.051 74.226,104.051 L62.576,104.051 C61.371,104.051 59.763,103.649 58.558,103.649 C50.044,103.004 42.075,100.237 35.169,95.885 C35.651,97.227 35.614,98.783 34.953,100.106 C33.748,102.516 30.534,103.321 28.124,102.114 L14.062,94.481 C11.652,94.883 10.447,96.491 10.447,98.901 C10.447,102.919 10.447,111.354 29.73,110.954 C31.739,110.954 33.345,112.159 34.149,113.767 C34.953,115.372 34.953,117.382 33.748,118.99 C33.748,119.39 19.64,147.021 19.64,179.965 C19.64,182.309 17.732,184.633 15.041,184.76 C24.6,189.205 35.248,191.703 46.484,191.703 C56.403,191.703 65.862,189.752 74.522,186.24 C74.206,186.263 73.89,186.271 73.575,186.271 C71.971,186.271 69.962,185.066 69.158,183.458 Z" id="路径" fill="#BCBCBC"></path>
                <path d="M69.116,183.583 C61.081,167.915 62.135,154.394 64.545,146.358 C63.741,146.358 62.536,146.358 61.732,146.358 C54.501,146.358 50.483,143.145 48.474,140.733 C43.252,134.708 44.859,125.467 45.261,124.665 C46.064,121.852 48.474,120.245 51.286,120.647 C54.099,121.45 55.706,123.862 55.304,126.672 C54.903,128.279 54.5,132.297 56.509,134.707 C56.91,135.109 58.116,136.717 62.134,136.717 C67.357,136.717 73.383,135.51 79.408,134.305 C86.639,133.1 94.675,131.492 103.512,131.492 C104.315,131.492 105.119,131.092 105.119,131.092 C105.52,130.69 105.922,130.289 105.922,129.082 C105.922,127.877 105.922,127.074 105.521,126.271 C102.708,124.664 97.084,121.449 91.459,117.031 C89.049,115.424 87.04,113.414 85.031,111.406 C80.612,106.986 77.398,104.176 74.184,104.176 L62.534,104.176 C61.329,104.176 59.721,103.774 58.516,103.774 C50.002,103.129 42.033,100.362 35.127,96.01 C35.609,97.352 35.572,98.908 34.911,100.231 C33.706,102.641 30.492,103.446 28.082,102.239 L14.02,94.606 C11.61,95.008 10.405,96.616 10.405,99.026 C10.405,103.044 10.405,111.479 29.688,111.079 C31.697,111.079 33.303,112.284 34.107,113.892 C34.911,115.497 34.911,117.507 33.706,119.115 C33.706,119.515 19.598,147.146 19.598,180.09 C19.598,182.434 17.69,184.758 14.999,184.885 C24.558,189.33 35.206,191.828 46.442,191.828 C56.361,191.828 65.82,189.877 74.48,186.365 C74.164,186.388 73.848,186.396 73.533,186.396 C71.929,186.396 69.92,185.191 69.116,183.583 Z" id="路径" fill="#BCBCBC"></path>
            </g>
        </g>
    </g>
</svg>